<?xml version="1.0" encoding="UTF-8"?>
<svg width="32" height="32" viewBox="0 0 32 32" fill="none" xmlns="http://www.w3.org/2000/svg">
  <!-- Letra 'i' -->
  <path d="M11 8.5C11 9.32843 10.3284 10 9.5 10C8.67157 10 8 9.32843 8 8.5C8 7.67157 8.67157 7 9.5 7C10.3284 7 11 7.67157 11 8.5Z" fill="#C84E00"/>
  <rect x="8.5" y="12" width="2" height="12" fill="#C84E00"/>
  
  <!-- Letra 'a' -->
  <path d="M22 18.5C22 21.5376 19.5376 24 16.5 24C13.4624 24 11 21.5376 11 18.5C11 15.4624 13.4624 13 16.5 13C19.5376 13 22 15.4624 22 18.5ZM16.5 22C18.433 22 20 20.433 20 18.5C20 16.567 18.433 15 16.5 15C14.567 15 13 16.567 13 18.5C13 20.433 14.567 22 16.5 22Z" fill="#006B76"/>
  <path d="M20 18.5V23.5H22V18.5H20Z" fill="#006B76"/>
</svg> 